<?xml version="1.0" encoding="UTF-8" ?>
<!DOCTYPE svg PUBLIC "-//W3C//DTD SVG 1.1//EN" "http://www.w3.org/Graphics/SVG/1.1/DTD/svg11.dtd">
<svg width="78pt" height="64pt" viewBox="0 0 78 64" version="1.1" xmlns="http://www.w3.org/2000/svg">
<g id="#ffffffff">
<path fill="#ffffff" opacity="1.00" d=" M 16.43 10.42 C 26.43 9.71 36.54 9.76 46.54 10.39 C 47.27 14.09 47.17 17.92 46.62 21.64 C 36.58 22.20 26.44 22.25 16.40 21.61 C 15.79 17.92 15.77 14.11 16.43 10.42 Z" />
<path fill="#ffffff" opacity="1.00" d=" M 62.99 14.82 C 62.87 13.01 63.36 11.25 64.14 9.62 C 65.05 15.04 64.55 20.54 64.63 26.00 C 64.50 35.53 65.02 45.08 64.32 54.59 C 63.47 53.24 62.85 51.73 63.00 50.10 C 63.03 38.34 63.07 26.58 62.99 14.82 Z" />
<path fill="#ffffff" opacity="1.00" d=" M 9.16 10.99 C 9.58 10.99 10.42 10.99 10.84 10.99 C 10.59 25.57 11.35 40.19 10.43 54.76 C 8.72 52.52 9.21 49.67 9.16 47.06 C 9.13 35.04 9.20 23.01 9.16 10.99 Z" />
<path fill="#ffffff" opacity="1.00" d=" M 28.19 26.04 C 38.06 25.44 47.99 25.70 57.87 26.00 C 57.97 29.70 58.02 33.40 57.93 37.10 C 47.71 37.58 37.47 37.52 27.24 37.15 C 27.44 33.54 25.66 29.04 28.19 26.04 Z" />
<path fill="#ffffff" opacity="1.00" d=" M 16.69 41.04 C 26.67 41.13 36.68 40.61 46.64 41.34 C 47.17 45.06 47.26 48.89 46.57 52.60 C 36.66 53.41 26.67 52.87 16.73 52.90 C 16.38 48.96 16.38 44.99 16.69 41.04 Z" />
</g>
</svg>
